+15_ID_stride5.mot
nRows=13
nColumns=38

name +15_ID_stride5.mot
datacolumns 38
datarows 13
range 2.5450000000 2.6050000000
endheader
time	pelvis_tilt_moment	pelvis_list_moment	pelvis_rotation_moment	pelvis_tx_force	pelvis_ty_force	pelvis_tz_force	hip_flexion_r_moment	hip_adduction_r_moment	hip_rotation_r_moment	knee_angle_r_moment	ankle_angle_r_moment	subtalar_angle_r_moment	mtp_angle_r_moment	hip_flexion_l_moment	hip_adduction_l_moment	hip_rotation_l_moment	knee_angle_l_moment	ankle_angle_l_moment	subtalar_angle_l_moment	mtp_angle_l_moment	lumbar_extension_moment	lumbar_bending_moment	lumbar_rotation_moment	arm_flex_r_moment	arm_add_r_moment	arm_rot_r_moment	elbow_flex_r_moment	pro_sup_r_moment	wrist_flex_r_moment	wrist_dev_r_moment	arm_flex_l_moment	arm_add_l_moment	arm_rot_l_moment	elbow_flex_l_moment	pro_sup_l_moment	wrist_flex_l_moment	wrist_dev_l_moment
        2.5450000000	        5.0989646370	      -19.8175438520	        1.8766442703	       23.9444791144	      -53.7898971960	      -99.4894691722	        8.6386745558	      -47.4276635990	       21.3600333520	        4.6585451483	     -198.0083234574	       43.2347639520	       -0.0458017875	      -14.2940887451	        1.9394556533	       -2.3313807126	       -2.6473844616	        2.1645159691	       -0.1950563027	        0.1387933123	        8.9891888604	       -7.5133413384	      -37.7008389519	        1.0489252537	       -2.9506298122	       -3.8610502286	        4.8880301694	       -0.2166780855	       -0.3265439995	       -0.4868492284	        7.8630933977	        6.4413646224	        4.4005383994	        4.8280136985	        0.0255262575	        0.5486056763	       -0.3006324681	
        2.5500000000	        6.9094976059	      -28.7456340933	       -0.2291283595	       23.8530420568	      -53.8442515279	      -83.7881239689	        5.7626259671	      -46.0452393786	       21.1821669079	       -5.9314854262	     -191.2079391126	       41.6661004119	       -0.0528403699	      -17.8799319867	        1.7372475306	       -1.6090912511	       -2.6420368737	        2.2238937855	       -0.2710857284	        0.1411077000	        4.9649966351	       -5.4372283463	      -39.4575864337	        0.1777016877	       -2.9151229133	       -3.8561944619	        4.2809398623	       -0.2099338311	       -0.3424470937	       -0.4355077625	        7.6895742068	        5.9699840310	        4.3175573407	        4.4534203858	        0.0361424799	        0.5405158692	       -0.2624601390	
        2.5550000000	        4.6463214995	      -33.4809958902	       -6.0127324804	       25.7603823147	      -33.5126239055	      -60.9695426880	        6.7296613070	      -39.9241805361	       17.3266271520	      -12.5273511196	     -180.4807234717	       39.1295605956	       -0.0588389730	      -22.6045927261	        2.0396112973	       -0.6470176010	       -3.4697954297	        2.2639065715	       -0.3573086170	        0.1426058001	        2.3504458577	       -1.1198474509	      -40.6733987787	       -0.7736453172	       -2.7446927022	       -3.7330134572	        3.7147113449	       -0.2018956538	       -0.3499947474	       -0.3862871540	        7.3214984848	        5.4211009575	        4.1717422154	        4.1426333890	        0.0445825945	        0.5282473792	       -0.2308207040	
        2.5600000000	       -0.7520432464	      -29.9467017231	      -13.7527077090	       27.3667529130	       -6.6377952386	      -41.1518633271	       15.3454642246	      -30.9030633730	       11.5627876370	      -11.7369147284	     -166.2459182519	       35.7506326679	       -0.0633060854	      -28.4706171149	        3.1436286214	        0.3883904683	       -5.0290108225	        2.2529359386	       -0.4367767936	        0.1416672364	        0.3657169874	        3.9534653362	      -41.2606019873	       -1.7373638537	       -2.5047581840	       -3.5439164239	        3.1693637573	       -0.1923215961	       -0.3476482276	       -0.3373880973	        6.8640953429	        4.8002572401	        3.9737054525	        3.8648683965	        0.0509203878	        0.5111723433	       -0.2033150121	
        2.5650000000	       -4.2759016477	      -22.2430898931	      -21.4518148578	       27.9053615600	       20.4881752131	      -26.3205217894	       30.2539567914	      -21.5115825030	        5.6722278859	       -8.3238420137	     -149.4334559451	       31.9560128532	       -0.0647223776	      -35.3254440934	        5.2801348364	        1.3627691092	       -7.4215890662	        2.1983109859	       -0.4922168660	        0.1380373746	       -1.7785779069	        8.8463387254	      -41.2521177164	       -2.6554368455	       -2.1766103374	       -3.2799717061	        2.6127587382	       -0.1803492346	       -0.3393446819	       -0.2860947243	        6.3380355177	        4.0881377801	        3.7069008979	        3.5696997827	        0.0555862404	        0.4868768441	       -0.1760275459	
        2.5700000000	       -3.7790372920	      -17.0005646776	      -25.7731544235	       27.5191191815	       29.5842444191	      -16.7134443956	       43.7622837419	      -16.3651751354	        3.5066209549	       -5.5204716000	     -132.0420120660	       28.2917297370	       -0.0641718507	      -42.8051444946	        8.2541438050	        2.1354291451	      -10.4835351094	        2.0757122945	       -0.5055472775	        0.1305435052	       -4.6200360853	       11.8899916738	      -40.8043891848	       -3.4732289967	       -1.7640734800	       -2.9520694691	        2.0090998507	       -0.1650198186	       -0.3246129269	       -0.2293140434	        5.7730582607	        3.2709736268	        3.3633952632	        3.2035508278	        0.0590456237	        0.4532795493	       -0.1448424937	
        2.5750000000	        4.6233112412	      -15.8246393639	      -26.8221077747	       23.7468541155	       28.2757552656	      -12.6663980419	       52.2211093904	      -15.2522402497	        3.5748266591	       -5.1144770954	     -115.6691749384	       24.9275470332	       -0.0584620302	      -50.2919838768	       11.7456246810	        2.6454951161	      -14.0440629487	        1.8958008768	       -0.4850138562	        0.1193197803	       -8.4336834659	       12.8022501852	      -39.6342602846	       -4.1673396702	       -1.2689640072	       -2.5603762680	        1.3270586328	       -0.1452036878	       -0.3047298963	       -0.1641562344	        5.1576082321	        2.3375795246	        2.9350100198	        2.7130885958	        0.0617045629	        0.4082321034	       -0.1058509499	
        2.5800000000	       18.0739840240	      -17.8177063763	      -24.0406856403	       14.1137646840	       -6.7377393394	      -13.2844458130	       55.9935259848	      -17.9844629849	        7.4174406374	       -8.7053753964	     -101.2808946472	       21.6977349684	       -0.0465136312	      -56.7926080684	       15.1677242212	        2.9022672418	      -17.7924099799	        1.6885415075	       -0.4151921612	        0.1053508373	      -13.0450545905	       10.6257187623	      -37.7279271015	       -4.7452950545	       -0.7080987753	       -2.1056653030	        0.5428596116	       -0.1199613547	       -0.2796852149	       -0.0882765127	        4.4370915766	        1.2965166558	        2.4250910061	        2.0553775674	        0.0639934307	        0.3507893524	       -0.0556137140	
        2.5850000000	       31.7145753673	      -15.4644813474	      -20.3342898470	       -2.7209456665	      -70.0858756133	      -18.4695147174	       60.0220126280	      -18.0698338277	       10.5469922709	      -12.2073150963	      -88.3196924333	       18.3050162630	       -0.0267753151	      -62.6537775871	       18.0923224719	        2.9360540362	      -21.7991315174	        1.4473178932	       -0.3128419441	        0.0888468722	      -17.9118126928	        5.9001043608	      -34.9502157702	       -5.2546447744	       -0.1208554601	       -1.5938321363	       -0.3516205458	       -0.0889377923	       -0.2493517229	       -0.0006584735	        3.5032517286	        0.1889820025	        1.8549935523	        1.2119435903	        0.0665651676	        0.2820304353	        0.0078455615	
        2.5900000000	       37.5722108498	       -8.0334292955	      -18.1026087946	      -24.0075063023	     -154.3304147139	      -23.1401652237	       67.0409293127	      -16.3820598437	       10.9270529451	      -12.6412642639	      -74.8309691904	       15.1571225905	        0.0006947117	      -68.0568301254	       19.8231610385	        2.9272791887	      -26.0451345071	        1.1891319365	       -0.1946570000	        0.0711570126	      -22.2609535429	       -0.2211540369	      -31.3539891837	       -5.7711005808	        0.4213857860	       -1.0513605904	       -1.3201638418	       -0.0536311686	       -0.2148871426	        0.0953538463	        2.3107180696	       -0.8941271531	        1.2732073216	        0.2243202472	        0.0698375783	        0.2067898213	        0.0820972380	
        2.5950000000	       38.1377125560	       10.3060768262	      -17.1963930190	      -46.1464629611	     -250.8732765857	      -24.1491985941	       80.1957858019	       -5.6491952923	        7.5780579774	       -8.5471320411	      -59.9627932614	       12.6021873402	        0.0377790288	      -73.1002183840	       20.3694612683	        2.8467408879	      -30.5808784661	        0.9241412329	       -0.0760741349	        0.0532443287	      -25.4747027037	       -6.5511994710	      -26.8183575416	       -6.3368232250	        0.8548744541	       -0.5001476427	       -2.3339805929	       -0.0149079514	       -0.1767545729	        0.1973956772	        0.7569772795	       -1.8676874741	        0.7224955359	       -0.8878315825	        0.0743131815	        0.1287888743	        0.1663478099	
        2.6000000000	       29.1837644393	       30.3580150796	      -16.4618645897	      -61.5767007921	     -338.3347835583	      -11.7868473927	       94.0701304000	        8.4327196559	        1.9902904572	       -1.6230846456	      -44.1813045122	       10.8763538422	        0.0829758486	      -78.0430019557	       19.4819386208	        2.7679821940	      -35.4351872431	        0.6674699369	        0.0232712662	        0.0365718326	      -27.1274900839	      -11.5915089484	      -21.6144248344	       -6.9783919491	        1.1113214513	        0.0143370541	       -3.3083442127	        0.0238443950	       -0.1375398269	        0.2973493644	       -1.1127662454	       -2.6236431738	        0.2626793486	       -2.0214971129	        0.0799000215	        0.0556897075	        0.2534637255	
        2.6050000000	       16.2542175515	       42.3296899752	      -12.2753578107	      -63.3743962991	     -398.6083595544	       16.5496822246	      101.1965707397	       21.0150641599	       -2.2645841318	        3.0733121879	      -30.0273556220	        9.4591771656	        0.1346102076	      -82.9923813991	       17.3182950743	        2.6443407526	      -40.6216020076	        0.4297479842	        0.0909020600	        0.0222658146	      -26.8694826582	      -14.4528487499	      -16.0978641739	       -7.6548753186	        1.1187784129	        0.4447664098	       -4.1433578816	        0.0588380395	       -0.1002107470	        0.3855202710	       -3.1708558922	       -3.0779356687	       -0.0600090511	       -3.0604175187	        0.0859509032	       -0.0052486314	        0.3348436409	
